<mxfile host="app.diagrams.net" modified="2024-01-23T08:39:48.196Z" agent="Mozilla/5.0 (Windows NT 10.0; Win64; x64) AppleWebKit/537.36 (KHTML, like Gecko) Chrome/120.0.0.0 Safari/537.36" etag="-Dvn7Ksy7y0HqRlumYoq" version="22.1.21" type="device">
  <diagram name="Страница — 1" id="RgdUBSA88awXL919eKBp">
    <mxGraphModel dx="1134" dy="678" grid="1" gridSize="10" guides="1" tooltips="1" connect="1" arrows="1" fold="1" page="1" pageScale="1" pageWidth="827" pageHeight="1169" math="0" shadow="0">
      <root>
        <mxCell id="0" />
        <mxCell id="1" parent="0" />
        <mxCell id="9DIFx_ebkTlLZ_afgtF5-5" style="edgeStyle=orthogonalEdgeStyle;rounded=0;orthogonalLoop=1;jettySize=auto;html=1;exitX=0.5;exitY=1;exitDx=0;exitDy=0;entryX=0.5;entryY=0;entryDx=0;entryDy=0;" edge="1" parent="1" source="9DIFx_ebkTlLZ_afgtF5-3" target="9DIFx_ebkTlLZ_afgtF5-4">
          <mxGeometry relative="1" as="geometry" />
        </mxCell>
        <mxCell id="9DIFx_ebkTlLZ_afgtF5-3" value="GetCharacterLength" style="rounded=0;whiteSpace=wrap;html=1;" vertex="1" parent="1">
          <mxGeometry x="354" y="60" width="120" height="60" as="geometry" />
        </mxCell>
        <mxCell id="9DIFx_ebkTlLZ_afgtF5-7" style="edgeStyle=orthogonalEdgeStyle;rounded=0;orthogonalLoop=1;jettySize=auto;html=1;exitX=0.5;exitY=1;exitDx=0;exitDy=0;entryX=0.5;entryY=0;entryDx=0;entryDy=0;" edge="1" parent="1" source="9DIFx_ebkTlLZ_afgtF5-4" target="9DIFx_ebkTlLZ_afgtF5-6">
          <mxGeometry relative="1" as="geometry" />
        </mxCell>
        <mxCell id="9DIFx_ebkTlLZ_afgtF5-4" value="string[] array1&lt;br&gt;string[] array2&lt;br&gt;int result = 0" style="shape=parallelogram;perimeter=parallelogramPerimeter;whiteSpace=wrap;html=1;fixedSize=1;" vertex="1" parent="1">
          <mxGeometry x="354" y="170" width="120" height="60" as="geometry" />
        </mxCell>
        <mxCell id="9DIFx_ebkTlLZ_afgtF5-9" style="edgeStyle=orthogonalEdgeStyle;rounded=0;orthogonalLoop=1;jettySize=auto;html=1;exitX=0.5;exitY=1;exitDx=0;exitDy=0;entryX=0.5;entryY=0;entryDx=0;entryDy=0;" edge="1" parent="1" source="9DIFx_ebkTlLZ_afgtF5-6" target="9DIFx_ebkTlLZ_afgtF5-8">
          <mxGeometry relative="1" as="geometry" />
        </mxCell>
        <mxCell id="9DIFx_ebkTlLZ_afgtF5-6" value="for (int i = 0; &lt;br&gt;i &amp;lt; array1.Length;&lt;br&gt;i= i+1)" style="rhombus;whiteSpace=wrap;html=1;fillColor=#f8cecc;strokeColor=#b85450;" vertex="1" parent="1">
          <mxGeometry x="346" y="260" width="136" height="80" as="geometry" />
        </mxCell>
        <mxCell id="9DIFx_ebkTlLZ_afgtF5-11" style="edgeStyle=orthogonalEdgeStyle;rounded=0;orthogonalLoop=1;jettySize=auto;html=1;exitX=0;exitY=0.5;exitDx=0;exitDy=0;entryX=0.5;entryY=1;entryDx=0;entryDy=0;" edge="1" parent="1" source="9DIFx_ebkTlLZ_afgtF5-8" target="9DIFx_ebkTlLZ_afgtF5-10">
          <mxGeometry relative="1" as="geometry" />
        </mxCell>
        <mxCell id="9DIFx_ebkTlLZ_afgtF5-12" value="Yes" style="edgeLabel;html=1;align=center;verticalAlign=middle;resizable=0;points=[];" vertex="1" connectable="0" parent="9DIFx_ebkTlLZ_afgtF5-11">
          <mxGeometry x="-0.4477" y="-4" relative="1" as="geometry">
            <mxPoint as="offset" />
          </mxGeometry>
        </mxCell>
        <mxCell id="9DIFx_ebkTlLZ_afgtF5-8" value="if (array1[i].Length &amp;lt;= 3)" style="rhombus;whiteSpace=wrap;html=1;fillColor=#d5e8d4;strokeColor=#82b366;" vertex="1" parent="1">
          <mxGeometry x="336" y="370" width="156" height="80" as="geometry" />
        </mxCell>
        <mxCell id="9DIFx_ebkTlLZ_afgtF5-13" style="edgeStyle=orthogonalEdgeStyle;rounded=0;orthogonalLoop=1;jettySize=auto;html=1;entryX=0;entryY=0.5;entryDx=0;entryDy=0;" edge="1" parent="1" source="9DIFx_ebkTlLZ_afgtF5-10" target="9DIFx_ebkTlLZ_afgtF5-6">
          <mxGeometry relative="1" as="geometry" />
        </mxCell>
        <mxCell id="9DIFx_ebkTlLZ_afgtF5-10" value="array2[result] = array1[i];&lt;br&gt;result= result+1;" style="rounded=0;whiteSpace=wrap;html=1;" vertex="1" parent="1">
          <mxGeometry x="160" y="275" width="140" height="50" as="geometry" />
        </mxCell>
        <mxCell id="9DIFx_ebkTlLZ_afgtF5-15" style="edgeStyle=orthogonalEdgeStyle;rounded=0;orthogonalLoop=1;jettySize=auto;html=1;exitX=0;exitY=0.5;exitDx=0;exitDy=0;entryX=0.02;entryY=0.579;entryDx=0;entryDy=0;entryPerimeter=0;" edge="1" parent="1" source="9DIFx_ebkTlLZ_afgtF5-8" target="9DIFx_ebkTlLZ_afgtF5-6">
          <mxGeometry relative="1" as="geometry">
            <Array as="points">
              <mxPoint x="330" y="410" />
              <mxPoint x="330" y="306" />
            </Array>
          </mxGeometry>
        </mxCell>
        <mxCell id="9DIFx_ebkTlLZ_afgtF5-16" value="No" style="edgeLabel;html=1;align=center;verticalAlign=middle;resizable=0;points=[];" vertex="1" connectable="0" parent="9DIFx_ebkTlLZ_afgtF5-15">
          <mxGeometry x="-0.0524" y="-1" relative="1" as="geometry">
            <mxPoint as="offset" />
          </mxGeometry>
        </mxCell>
      </root>
    </mxGraphModel>
  </diagram>
</mxfile>
